<svg width="600" height="600" xmlns="http://www.w3.org/2000/svg" xmlns:xlink="http://www.w3.org/1999/xlink"><defs><path id="a" d="M.886.884h125.723v107.065H.886z"/><path id="c" d="M.61.884h125.72v107.09H.61z"/><path id="e" d="M1 .498h.523v1H1z"/><path id="g" d="M1 .8h.524v1H1z"/><path id="i" d="M.577.477h1V1h-1z"/><path id="k" d="M.665.478h1V1h-1z"/></defs><g fill="none" fill-rule="evenodd"><path d="M326.917 220.7c-.2.2-.442.337-.647.53-.713.68-1.493 1.264-2.27 1.864-.618.473-1.206.982-1.855 1.401-.941.608-1.953 1.091-2.965 1.583-.592.288-1.152.638-1.762.883-1.096.44-2.257.73-3.414 1.031-.601.158-1.173.394-1.785.512-.704.134-1.448.13-2.169.212-1.051.121-2.089.301-3.163.308 31.962.053 61.934 12.503 84.407 35.088a28.223 28.223 0 0020.057 8.363 28.132 28.132 0 0017.71-6.263l.487-.396a28.276 28.276 0 0010.482-20.446 28.257 28.257 0 00-8.166-21.446c-18.983-19.115-41.658-33.138-66.451-41.833l-37.955 37.95c-.197.208-.338.454-.541.658" fill="#F96B83"/><path d="M181.497 223.911c-.187.19-.313.422-.495.617.315-.32.584-.671.901-.988-.13.13-.276.24-.406.371" fill="#80C1EA"/><path d="M223.977 225.653c9.494 11.786 8.592 28.02-1.7 38.248-.044.046-.083.098-.13.143 22.446-22.519 52.35-34.94 84.369-35.017-1.618-.006-3.201-.197-4.764-.464-.16-.028-.333-.017-.492-.048-.94-.177-1.826-.506-2.737-.775-.84-.246-1.7-.439-2.506-.758-.645-.258-1.24-.616-1.865-.92-1.03-.498-2.054-.996-3.01-1.609-.443-.288-.847-.634-1.275-.948-1.074-.778-2.104-1.595-3.055-2.512-.116-.112-.258-.19-.373-.306-.184-.184-.311-.407-.488-.594l-38.03-38.029c-24.348 8.565-46.704 22.342-65.532 41.034 5.638-5.466 13.396-8.37 21.154-7.934a28.27 28.27 0 0120.434 10.49" fill="#88C0FC"/><path d="M322.144 224.495c-.946.609-1.957 1.093-2.964 1.583 1.012-.492 2.024-.975 2.964-1.583M317.418 226.961c-1.102.443-2.261.73-3.414 1.031 1.157-.302 2.318-.59 3.414-1.03M312.219 228.504c-.708.137-1.448.128-2.17.212.722-.082 1.466-.078 2.17-.212M298.523 227.74c-.838-.248-1.696-.435-2.506-.758.806.32 1.666.512 2.506.758M301.752 228.563c-.161-.028-.332-.018-.492-.048.159.03.332.02.492.048M326.27 221.23c-.72.678-1.495 1.27-2.27 1.863.778-.599 1.556-1.184 2.27-1.863M289.866 223.505c-1.06-.774-2.097-1.584-3.055-2.512.951.917 1.982 1.734 3.055 2.512M294.151 226.062c-1.022-.5-2.05-.987-3.009-1.608.955.612 1.98 1.11 3.01 1.608" fill="#80C1EA"/><path d="M306.68 229.033c.02 0 .038.005.057.005.05 0 .099-.014.15-.014-.024 0-.05-.004-.074-.004-.045 0-.086.013-.132.013" fill="#F5AF57"/><g transform="translate(180.073 74.116)"><mask id="b" fill="#fff"><use xlink:href="#a"/></mask><path d="M126.609 85.955L49.618 8.959c-10.748-10.76-29.632-10.773-40.38 0C3.852 14.333.886 21.498.886 29.146c0 7.635 2.966 14.8 8.346 20.186l58.616 58.617a175.952 175.952 0 0146.324-9.557l12.437-12.437z" fill="#FFB963" mask="url(#b)"/></g><path d="M319.18 226.078c-.591.288-1.148.636-1.762.883.61-.246 1.17-.595 1.762-.883M322.417 224.29c-.096.062-.177.143-.272.205.649-.419 1.237-.929 1.855-1.402-.458.352-.9.718-1.379 1.042-.07.048-.134.107-.204.154M326.633 220.833c-.127.127-.234.273-.363.397.205-.193.447-.33.647-.53.203-.205.344-.45.54-.66l-.645.647c-.055.054-.123.091-.18.146M314.004 227.992c-.601.157-1.17.395-1.785.512.612-.118 1.184-.354 1.785-.512M307.565 228.946c-.255.008-.498.072-.753.074.025 0 .05.004.074.004 1.075-.007 2.113-.187 3.163-.308-.824.092-1.64.21-2.484.23M280.73 188.642c.617-1.347 1.272-2.68 2.097-3.92-.814 1.248-1.493 2.558-2.097 3.92" fill="#F5AF57"/><path d="M307.565 228.946c.844-.02 1.66-.138 2.484-.23.721-.084 1.461-.076 2.17-.212.616-.118 1.184-.355 1.784-.512 1.154-.302 2.313-.588 3.415-1.03.613-.248 1.17-.596 1.761-.884 1.008-.49 2.02-.974 2.965-1.583.096-.062.177-.143.273-.206-4.374 2.914-9.489 4.483-14.852 4.657M285.809 219.922a28.52 28.52 0 01-2.45-2.977 27.77 27.77 0 002.45 2.977M279.127 193.246c.266-1.018.534-2.032.91-3.01a27.88 27.88 0 00-.91 3.01M322.621 224.135c.48-.323.921-.689 1.38-1.042.773-.593 1.55-1.185 2.268-1.863.13-.123.237-.27.364-.397a28.486 28.486 0 01-4.012 3.302" fill="#F5AF57"/><path d="M306.516 229.027c.037 0 .072.011.109.011.019 0 .037-.005.056-.005-.031 0-.06-.009-.091-.009-.025 0-.05.003-.074.003" fill="#8287C1"/><g transform="translate(306.073 74.116)"><mask id="d" fill="#fff"><use xlink:href="#c"/></mask><path d="M59.34 107.975l58.65-58.643c5.373-5.386 8.34-12.551 8.34-20.186 0-7.648-2.967-14.813-8.34-20.187-10.754-10.773-29.63-10.76-40.385 0L.61 85.955l12.465 12.468a177.163 177.163 0 0146.266 9.552" fill="#A69FFF" mask="url(#d)"/></g><path d="M295.525 226.74c-.474-.198-.913-.456-1.374-.678.625.304 1.22.662 1.865.92-.058-.023-.109-.058-.167-.082-.112-.046-.213-.112-.324-.16M285.95 220.093c.178.187.305.41.488.594.116.115.257.194.373.306-.197-.19-.37-.404-.562-.6l-.299-.3zM300.24 228.226c-.586-.132-1.147-.318-1.718-.486.911.269 1.798.598 2.738.776-.02-.004-.037-.013-.057-.017-.33-.065-.637-.197-.964-.273M303.765 228.749c-.67-.066-1.357-.074-2.013-.186 1.563.268 3.146.458 4.764.464.024 0 .049-.003.074-.003-.96-.005-1.884-.18-2.825-.275M291.143 224.453c-.448-.287-.848-.637-1.276-.947.428.313.832.66 1.276.947M329.624 217.405c-.411.555-.866 1.078-1.319 1.604.449-.528.908-1.04 1.319-1.604M332.217 213.127c-.165.334-.35.66-.527.987.177-.33.362-.65.527-.987M334.11 208.161c-.08.287-.17.57-.259.853.09-.284.177-.564.258-.853M334.815 195.793c.165 1.001.238 2.022.298 3.048a28.407 28.407 0 00-.298-3.048M330.507 184.676c.896 1.341 1.618 2.778 2.27 4.245a27.932 27.932 0 00-2.27-4.245M333.243 189.975c.48 1.213.825 2.476 1.135 3.75-.3-1.28-.66-2.525-1.135-3.75" fill="#8287C1"/><path d="M301.203 228.5c.021.003.037.011.057.015.16.03.331.02.492.048.655.111 1.343.12 2.013.186-.855-.089-1.726-.088-2.562-.25M295.85 226.9c.058.023.108.06.167.082.81.323 1.668.51 2.506.758.57.168 1.132.354 1.717.486-1.496-.347-2.98-.746-4.39-1.327M286.544 220.687l-.295-.295c.19.197.365.41.563.602.958.927 1.995 1.737 3.054 2.51.429.312.828.662 1.277.95.959.62 1.986 1.108 3.008 1.608.46.222.9.479 1.374.678a28.374 28.374 0 01-8.981-6.053" fill="#8287C1"/><path d="M305.947 171.936c.072 0 .142-.023.215-.023h.043c.038 0 .074.005.112.005.122 0 .241-.018.363-.018l1.421.05h.043c.272 0 .552.086.825.096 3.416.051 6.801.254 10.178.492l-12.466-12.468-12.436 12.437c3.886-.268 7.77-.555 11.702-.57" fill="#9B78EF"/><path d="M306.742 229.017c-.052 0-.1.007-.152.007.031 0 .06.01.09.01.046 0 .087-.013.132-.014-.023 0-.046-.004-.07-.004M330.47 184.627l.037.049c-.012-.017-.025-.032-.036-.05M332.777 188.92c.153.354.327.697.466 1.055-.142-.36-.31-.702-.466-1.054" fill="#8287C1"/><path d="M306.805 229.013c-.021 0-.041.004-.062.004l.07.002c.255 0 .498-.066.753-.073-.244.006-.473.067-.718.067h-.043zM306.205 171.913h-.043c-.073 0-.143.022-.215.023.124 0 .245-.017.37-.018-.038 0-.074-.005-.112-.005M326.812 220.687l.646-.646c.308-.327.556-.692.847-1.031a27.545 27.545 0 01-1.672 1.823c.056-.054.124-.091.179-.146M331.69 214.114a28.687 28.687 0 01-2.065 3.292c.778-1.051 1.444-2.154 2.065-3.292M333.852 209.014a29.367 29.367 0 01-1.635 4.112 28.053 28.053 0 001.635-4.112" fill="#8287C1"/><path d="M334.929 204.04a28.163 28.163 0 01-.82 4.121c-.08.29-.168.57-.257.853a28.165 28.165 0 01-1.635 4.112c-.165.338-.35.658-.527.987-.621 1.138-1.287 2.241-2.066 3.292-.411.564-.87 1.075-1.32 1.604-.29.34-.538.705-.846 1.031l37.955-37.95a177.196 177.196 0 00-46.265-9.552l7.1 7.101.675.674a28.74 28.74 0 013.548 4.313c.01.018.024.032.036.05a27.97 27.97 0 012.27 4.244c.156.352.325.695.466 1.054.475 1.225.834 2.471 1.135 3.751.166.685.322 1.367.438 2.068.158 1.012.249 2.02.298 3.048.05 1.116.077 2.234-.005 3.36a28.01 28.01 0 01-.18 1.84" fill="#9570EF"/><path d="M322.417 224.29c.07-.048.134-.107.204-.155-.071.048-.134.106-.204.154M334.378 193.725c.16.687.328 1.37.437 2.068a28.108 28.108 0 00-.437-2.068M285.809 219.922c.05.055.09.117.142.17l.298.3c-.151-.154-.294-.312-.44-.47" fill="#8287C1"/><path d="M247.92 182.064l38.03 38.03c-.051-.055-.091-.118-.141-.173a27.988 27.988 0 01-2.45-2.976 27.604 27.604 0 01-1.045-1.629 27.716 27.716 0 01-2.462-5.165 27.47 27.47 0 01-.721-2.384 28.707 28.707 0 01-.648-3.196c-.081-.57-.121-1.15-.167-1.73a30.903 30.903 0 01-.033-4.353c.043-.688.11-1.362.199-2.037.153-1.09.37-2.15.645-3.205.255-1.027.545-2.029.91-3.01.208-.544.45-1.065.694-1.594.604-1.362 1.283-2.673 2.096-3.92.04-.06.088-.117.129-.178a28.689 28.689 0 013.483-4.23l.6-.602 7.206-7.205a175.952 175.952 0 00-46.324 9.557" fill="#F39B22"/><path d="M283.36 216.945a28.157 28.157 0 01-1.047-1.628c.337.552.67 1.098 1.046 1.628M278.481 196.452c.144-1.094.384-2.153.646-3.206a28.25 28.25 0 00-.646 3.206M280.037 190.236c.201-.546.46-1.064.693-1.594-.242.53-.485 1.051-.693 1.594M306.638 229.013c-.981 0-1.917-.17-2.873-.264.94.096 1.866.27 2.825.275.052 0 .1-.007.152-.007-.02 0-.041-.004-.061-.004h-.043z" fill="#8287C1"/><path d="M308.144 171.95h-.042l-1.422-.049c-.122 0-.24.017-.363.017.892.001 1.762.115 2.652.129-.273-.011-.554-.097-.825-.097" fill="#7A5C94"/><path d="M301.203 228.5c-.333-.064-.636-.2-.964-.274.327.075.634.208.964.273M295.85 226.9c-.112-.045-.212-.114-.324-.16.11.047.212.114.324.16M282.827 184.722c.04-.062.09-.117.13-.178-.042.061-.089.117-.13.178" fill="#8287C1"/><path d="M334.815 195.793c-.109-.698-.276-1.38-.437-2.068-.31-1.275-.655-2.537-1.135-3.75-.139-.359-.313-.702-.466-1.055-.652-1.466-1.374-2.903-2.27-4.244-.01-.017-.025-.032-.037-.05a28.682 28.682 0 00-3.548-4.312l-.673-.675-7.102-7.1c-3.377-.239-6.762-.442-10.178-.493-.89-.013-1.759-.127-2.652-.128-.125.001-.246.018-.37.018-3.933.016-7.817.303-11.702.571l-7.205 7.205-.602.602a28.619 28.619 0 00-3.482 4.23c-.04.061-.089.117-.129.178-.825 1.24-1.48 2.573-2.097 3.92-.234.53-.492 1.048-.693 1.594-.376.977-.645 1.992-.91 3.01-.262 1.052-.502 2.111-.646 3.205a31.053 31.053 0 00-.166 6.39c.047.58.087 1.16.168 1.73.148 1.091.381 2.151.647 3.196.211.806.441 1.604.721 2.384a27.659 27.659 0 002.462 5.165c.335.553.675 1.102 1.046 1.63a28.51 28.51 0 002.45 2.975c.146.158.288.317.44.471l.295.295a28.36 28.36 0 008.981 6.052c.112.047.212.116.324.16 1.411.581 2.894.98 4.39 1.327.328.074.631.21.964.273.836.162 1.707.161 2.561.25.956.094 1.892.264 2.873.264h.043c.021 0 .041.003.062.003.021 0 .041-.003.062-.003h.043c.245 0 .474-.06.718-.067 5.363-.174 10.478-1.743 14.852-4.657.07-.048.132-.106.204-.154a28.478 28.478 0 004.011-3.302 27.815 27.815 0 001.672-1.824c.453-.526.908-1.049 1.32-1.604a28.6 28.6 0 002.065-3.292c.18-.327.362-.652.527-.987a29.367 29.367 0 001.635-4.112c.09-.283.18-.566.258-.853.373-1.326.626-2.71.82-4.12.075-.61.143-1.222.18-1.84.081-1.126.055-2.244.004-3.36-.06-1.026-.133-2.047-.298-3.048" fill="#8D60EF"/><path d="M182.084 223.343c-.063.063-.117.133-.181.197.157-.156.329-.287.486-.442-.094.091-.212.152-.305.245" fill="#E8546A"/><path d="M161.31 320.088c15.042 1.593 25.894 13.737 25.87 28.303l.003.061c.015-31.945 12.432-61.903 34.964-84.408-.023.024-.049.044-.073.067-5.516 5.547-12.774 8.376-20.057 8.376-6.246 0-12.502-2.075-17.716-6.275l-.599-.495c-6.102-4.917-9.92-12.354-10.365-20.335-.424-7.715 2.397-15.237 7.665-20.855-32.592 32.95-50.633 76.532-50.882 123.533.142-8.263 3.491-15.692 9.305-20.906 5.948-5.337 13.911-7.968 21.885-7.066" fill="#F96B83"/><g transform="translate(129.073 348.116)"><mask id="f" fill="#fff"><use xlink:href="#e"/></mask><path d="M1 .917c0 .143.043.28.045.422 0-.23-.032-.453-.033-.682 0 .088-.012.172-.012.26" fill="#E8546A" mask="url(#f)"/></g><path d="M183.702 265.718l.6.494c5.212 4.2 11.47 6.276 17.714 6.276 7.284 0 14.541-2.83 20.058-8.376.024-.024.05-.043.073-.067.046-.046.085-.098.13-.143 10.291-10.23 11.194-26.463 1.7-38.248a28.269 28.269 0 00-20.434-10.49c-7.759-.437-15.517 2.468-21.154 7.935-.157.154-.33.286-.486.44-.317.318-.586.67-.9.989-5.269 5.617-8.09 13.14-7.666 20.855.444 7.98 4.262 15.418 10.365 20.335" fill="#E24B77"/><path d="M183.795 431.238c11.804-9.55 28.037-8.611 38.26 1.668.059.059.124.106.182.166-22.591-22.503-35.04-52.505-35.054-84.62 0 .022-.003.042-.003.063.024 14.689-10.828 26.833-25.234 28.365l-.636.06c-.994.112-1.995.162-2.983.162a28.358 28.358 0 01-18.902-7.227c-5.817-5.216-9.168-12.643-9.306-20.42.243 46.552 18.315 90.179 50.973 123.156-5.34-5.62-8.194-13.204-7.768-20.965a28.258 28.258 0 0110.47-20.408" fill="#9AF7F0"/><g transform="translate(129.073 347.116)"><mask id="h" fill="#fff"><use xlink:href="#g"/></mask><path d="M1 1.399c0 .086.012.171.012.258.001-.24.034-.474.035-.713C1.044 1.1 1 1.243 1 1.399" fill="#69C5D7" mask="url(#h)"/></g><path d="M182.084 473.699c.162.16.36.27.526.428-.263-.261-.554-.483-.815-.744.102.1.186.214.289.316" fill="#69C5D7"/><path d="M158.327 377.102c.988 0 1.989-.05 2.983-.161l.637-.062c14.405-1.531 25.257-13.675 25.233-28.364 0-.021.003-.041.003-.062 0-.021-.003-.041-.003-.062.024-14.565-10.828-26.71-25.87-28.303-7.974-.902-15.936 1.73-21.885 7.067-5.814 5.214-9.162 12.642-9.305 20.905-.001.239-.034.473-.034.713 0 .229.032.453.033.683.139 7.776 3.489 15.203 9.306 20.418a28.36 28.36 0 0018.902 7.228" fill="#7BD6D3"/><path d="M278.254 493.872c1.606-15.01 13.72-25.857 28.26-25.857h.044l.06-.003c-31.926-.015-61.882-12.422-84.381-34.94.014.013.027.03.04.043 10.29 10.254 11.194 26.486 2.088 37.778l-.401.495a28.298 28.298 0 01-20.428 10.463c-.512.025-1.031.038-1.544.038-7.204 0-14.134-2.81-19.382-7.763 32.98 32.643 76.617 50.72 123.187 50.946-7.827-.135-15.266-3.49-20.488-9.32a28.309 28.309 0 01-7.055-21.88" fill="#FFB963"/><g transform="translate(306.073 524.116)"><mask id="j" fill="#fff"><use xlink:href="#i"/></mask><path d="M1.126 1c.143 0 .28-.043.421-.045C1.231.955.923 1 .607 1h.52z" fill="#F5AF57" mask="url(#j)"/></g><path d="M181.478 473.093c.101.102.215.187.316.29-.248-.249-.457-.524-.703-.772.143.15.241.335.387.482" fill="#F5AF57"/><path d="M203.536 481.852a28.296 28.296 0 0020.428-10.464l.401-.494c9.106-11.292 8.203-27.524-2.088-37.778-.013-.015-.026-.031-.04-.044-.058-.06-.123-.108-.18-.166-10.225-10.28-26.458-11.218-38.262-1.668a28.254 28.254 0 00-10.47 20.408c-.428 7.76 2.428 15.345 7.767 20.965.246.248.455.523.703.77.261.263.552.485.815.745 5.247 4.954 12.178 7.763 19.382 7.763.513 0 1.031-.013 1.544-.037" fill="#FF9A15"/><g transform="translate(305.073 524.116)"><mask id="l" fill="#fff"><use xlink:href="#k"/></mask><path d="M1.12 1h.487C1.31 1 1.02.959.723.957.857.96.985 1 1.12 1" fill="#8287C1" mask="url(#l)"/></g><path d="M429.054 430.818c-11.285-9.105-27.524-8.203-37.767 2.1-22.506 22.618-52.528 35.08-84.668 35.094.02 0 .04.003.062.003h.043c14.652 0 26.753 10.835 28.29 25.215.922 8.636-1.654 16.605-6.985 22.547-5.211 5.81-12.63 9.15-20.41 9.294 47.049-.244 91.143-18.648 124.24-51.953a28.303 28.303 0 008.16-21.46c-.44-7.98-4.256-15.417-10.965-20.84" fill="#A69FFF"/><path d="M335.015 493.23c-1.538-14.38-13.64-25.215-28.291-25.215h-.043c-.02 0-.041-.003-.062-.003-.021 0-.041.003-.061.003h-.044c-14.54 0-26.653 10.848-28.26 25.858a28.31 28.31 0 007.055 21.878c5.223 5.832 12.66 9.187 20.488 9.322.297.002.587.043.884.043.315 0 .624-.044.939-.045 7.779-.143 15.198-3.484 20.409-9.294 5.33-5.943 7.907-13.911 6.986-22.547" fill="#9B78EF"/></g></svg>
